<svg id="Layer_2" data-name="Layer 2" xmlns="http://www.w3.org/2000/svg" xmlns:xlink="http://www.w3.org/1999/xlink" viewBox="0 0 601.17 711.88"><defs><style>.cls-1{fill:url(#linear-gradient);}.cls-2{fill:url(#linear-gradient-2);}.cls-3{fill:url(#linear-gradient-3);}.cls-4{fill:url(#linear-gradient-4);}</style><linearGradient id="linear-gradient" x1="312.58" y1="236.12" x2="1030.58" y2="-500.88" gradientTransform="matrix(1, 0, 0, -1, -0.74, 714.62)" gradientUnits="userSpaceOnUse"><stop offset="0" stop-color="#fff"/><stop offset="0.69" stop-color="#686566"/><stop offset="1"/></linearGradient><linearGradient id="linear-gradient-2" x1="329.97" y1="277.25" x2="-455.03" y2="305.25" xlink:href="#linear-gradient"/><linearGradient id="linear-gradient-3" x1="191.47" y1="331.78" x2="2765.8" y2="379.92" gradientTransform="matrix(1, 0, 0, -1, -0.74, 714.62)" gradientUnits="userSpaceOnUse"><stop offset="0" stop-color="#fff"/><stop offset="1" stop-color="#686566"/></linearGradient><linearGradient id="linear-gradient-4" x1="896" y1="243.96" x2="896.5" y2="243.96" xlink:href="#linear-gradient-3"/></defs><polygon class="cls-1" points="211.73 0 0 534.14 87.2 534.14 207.04 215.3 247.88 317.12 332.76 316.36 211.73 0"/><polygon class="cls-2" points="514.65 174.88 601.17 174.88 394.48 711.88 350.32 601.22 514.65 174.88"/><polygon class="cls-3" points="157.54 422.07 189.15 339.52 342.54 340.11 285.75 424.41 157.54 422.07"/><polygon class="cls-4" points="395.2 483.84 342.54 340.11 285.75 424.41 350.32 601.22 395.2 483.84"/></svg>