<svg width="107" height="28" viewBox="0 0 107 28" fill="none" xmlns="http://www.w3.org/2000/svg">
<path d="M29.1661 5.94217L29.1661 22.7323L25.1399 22.7323L25.1399 5.94217L29.1661 5.94217Z" fill="#7D8287"/>
<path d="M43.2565 11.1164L43.2565 22.1443C43.2565 25.5673 40.3365 27.6717 36.7633 27.6717C33.3187 27.6717 30.7452 25.7209 30.4978 22.9662L34.1304 22.9842C34.2788 24.1584 35.4072 24.6642 36.8919 24.6642C38.2975 24.6642 39.604 23.9777 39.604 22.1894L39.604 20.7805C38.6736 21.3314 37.4858 21.6566 36.1595 21.6566C32.8337 21.6566 30.1711 19.1999 30.1711 16.373C30.1711 13.0854 32.8436 10.8816 36.1595 10.8816C37.4957 10.8816 38.6736 11.2068 39.604 11.7577L39.604 11.1616L43.2565 11.1164ZM39.6139 17.6103L39.6139 14.9279C38.8716 13.9434 37.8422 13.6183 36.8227 13.6183C35.0311 13.6183 33.7839 14.7111 33.7839 16.373C33.7839 17.5923 35.0311 18.929 36.8227 18.929C37.8422 18.9199 38.8716 18.5858 39.6139 17.6103Z" fill="#7D8287"/>
<path d="M56.3436 16.8167C56.3436 20.2712 53.7705 22.7335 50.3181 22.7335C46.838 22.7335 44.2649 20.2712 44.2649 16.8167C44.2649 13.3898 46.838 10.8816 50.3181 10.8816C53.7705 10.8816 56.3436 13.3898 56.3436 16.8167ZM53.0578 16.8167C53.0578 15.1906 51.9842 13.8767 50.3181 13.8767C48.6336 13.8767 47.5599 15.1906 47.5599 16.8167C47.5599 18.4889 48.6336 19.7384 50.3181 19.7384C51.9749 19.7292 53.0578 18.4889 53.0578 16.8167Z" fill="#7D8287"/>
<path d="M78.4882 11.1514L78.4882 22.4358L75.1697 22.4544L75.1697 21.8125C74.3056 22.38 73.2026 22.7335 71.9708 22.7335C68.8821 22.7335 66.4094 20.0822 66.4094 16.8169C66.4094 13.5329 68.8913 10.8816 71.9708 10.8816C73.2117 10.8816 74.3056 11.2351 75.1697 11.8026L75.1697 11.1607L78.4882 11.1514ZM75.1697 18.5472L75.1697 15.0865C74.4711 14.0818 73.4967 13.8027 72.5223 13.8027C70.8217 13.8027 69.6451 15.1795 69.6451 16.8262C69.6451 18.4542 70.8217 19.831 72.5223 19.831C73.4967 19.8217 74.4711 19.5519 75.1697 18.5472Z" fill="#7D8287"/>
<path d="M92.578 16.45L92.578 22.7335L89.2096 22.7335L89.2096 16.86C89.2096 14.9721 88.2703 13.9709 86.6003 13.9709C85.7274 13.9709 84.769 14.4763 83.9435 15.4488L83.9435 22.7335L80.4992 22.7335L80.4992 11.1677L83.9435 11.1677L83.9435 12.0449C84.8829 11.2916 85.9741 10.8816 87.274 10.8816C90.3482 10.8816 92.578 13.0556 92.578 16.45Z" fill="#7D8287"/>
<path d="M23.6631 22.307L20.112 22.307L17.8015 13.8795L12.83 22.307L8.86225 22.307L16.5326 9.26155L15.3015 4.72724L4.95134 22.3163L0.983612 22.3163L14.0989 0.016388L17.5742 0.016388L19.0988 5.55419L22.6878 5.55419L20.2351 9.73542L23.6631 22.307Z" fill="#7D8287"/>
<path d="M106.672 5.95131L106.672 22.4579L103.307 22.4579L103.307 21.8269C102.447 22.3848 101.35 22.7323 100.125 22.7323C97.0526 22.7323 94.593 20.126 94.593 16.8978C94.593 13.6879 97.0618 11.0816 100.125 11.0816C101.359 11.0816 102.447 11.4291 103.307 11.987L103.307 5.94217L106.672 5.95131ZM103.307 18.6262L103.307 15.1969C102.603 14.2001 101.624 13.9257 100.655 13.9257C98.9545 13.9257 97.775 15.2883 97.775 16.8978C97.775 18.5348 98.9545 19.8974 100.655 19.8974C101.624 19.8974 102.603 19.623 103.307 18.6262Z" fill="#7D8287"/>
<path d="M65.4007 13.9181C64.64 14.0152 62.8523 14.1026 61.8064 15.5783L61.8064 22.7335L58.3547 22.7335L58.3547 10.9668L61.8064 10.9668L61.8064 11.8502C62.5956 11.1609 63.7842 10.7532 65.4007 10.9182" fill="#7D8287"/>
</svg>
