<svg width="40" height="40" viewBox="0 0 40 40" fill="none" xmlns="http://www.w3.org/2000/svg">
<path d="M30.3961 10.2794C28.4512 9.36961 26.3987 8.72086 24.29 8.34939C24.2708 8.34558 24.2509 8.34808 24.2331 8.35656C24.2154 8.36503 24.2007 8.37903 24.1913 8.39653C23.9288 8.87426 23.6363 9.49721 23.4313 9.98895C21.1582 9.63707 18.8459 9.63707 16.5728 9.98895C16.3446 9.44409 16.0872 8.91247 15.8015 8.39653C15.7917 8.37942 15.777 8.36575 15.7593 8.35734C15.7417 8.34892 15.722 8.34615 15.7028 8.34939C13.5939 8.72008 11.5413 9.36887 9.59672 10.2794C9.58025 10.2864 9.5663 10.2984 9.55672 10.3138C5.66683 16.2363 4.60061 22.0123 5.12435 27.7157C5.12562 27.7299 5.12971 27.7436 5.13637 27.7561C5.14304 27.7686 5.15213 27.7796 5.1631 27.7883C7.42752 29.4982 9.9606 30.8035 12.6541 31.6484C12.6731 31.654 12.6933 31.6536 12.7121 31.6472C12.7308 31.6408 12.7472 31.6288 12.7591 31.6127C13.3382 30.8107 13.8508 29.9611 14.2916 29.0725C14.2977 29.0603 14.3013 29.047 14.302 29.0333C14.3027 29.0196 14.3006 29.006 14.2957 28.9932C14.2909 28.9805 14.2834 28.9689 14.2739 28.9593C14.2643 28.9497 14.2529 28.9422 14.2403 28.9374C13.4321 28.6222 12.6497 28.2423 11.9004 27.8011C11.8867 27.793 11.8751 27.7816 11.8668 27.7678C11.8584 27.7541 11.8535 27.7384 11.8525 27.7223C11.8515 27.7061 11.8545 27.69 11.8611 27.6753C11.8677 27.6606 11.8778 27.6478 11.8904 27.638C12.0482 27.5177 12.2032 27.3937 12.3554 27.266C12.3687 27.255 12.3847 27.248 12.4017 27.2458C12.4187 27.2435 12.436 27.2461 12.4516 27.2533C17.3615 29.5375 22.6763 29.5375 27.5287 27.2533C27.5445 27.2459 27.562 27.2431 27.5792 27.2454C27.5965 27.2476 27.6128 27.2548 27.6262 27.266C27.7762 27.3909 27.9337 27.5183 28.0924 27.638C28.1049 27.6476 28.1149 27.6602 28.1216 27.6747C28.1282 27.6891 28.1313 27.705 28.1306 27.7209C28.1298 27.7369 28.1253 27.7524 28.1173 27.7661C28.1094 27.7799 28.0983 27.7914 28.0849 27.7998C27.3373 28.2451 26.5542 28.6252 25.7437 28.9362C25.7311 28.9411 25.7197 28.9487 25.7101 28.9584C25.7006 28.9681 25.6931 28.9798 25.6883 28.9927C25.6835 29.0055 25.6813 29.0193 25.6821 29.033C25.6828 29.0468 25.6863 29.0602 25.6925 29.0725C26.1425 29.9617 26.6575 30.8076 27.2237 31.6114C27.2354 31.6278 27.2518 31.64 27.2706 31.6464C27.2894 31.6528 27.3097 31.6531 27.3287 31.6471C30.0267 30.8048 32.5639 29.4994 34.831 27.7871C34.842 27.7791 34.8513 27.7689 34.8582 27.757C34.8651 27.7452 34.8694 27.732 34.871 27.7183C35.496 21.1231 33.8235 15.3942 30.4349 10.3163C30.4269 10.2992 30.4132 10.2856 30.3961 10.2781V10.2794ZM15.0253 24.2417C13.5466 24.2417 12.3291 22.8595 12.3291 21.1601C12.3291 19.4619 13.5241 18.0784 15.0253 18.0784C16.5378 18.0784 17.7452 19.4747 17.7215 21.1613C17.7215 22.8595 16.5265 24.2417 15.0253 24.2417ZM24.9938 24.2417C23.5151 24.2417 22.2976 22.8595 22.2976 21.1601C22.2976 19.4619 23.4913 18.0784 24.9938 18.0784C26.5062 18.0784 27.7137 19.4747 27.6899 21.1613C27.6899 22.8595 26.5075 24.2417 24.9938 24.2417Z" fill="#787D82"/>
</svg>
