<svg width="40" height="40" viewBox="0 0 40 40" fill="none" xmlns="http://www.w3.org/2000/svg">
<path d="M26.9307 13.5198C25.6342 12.9132 24.2658 12.4807 22.86 12.2331C22.8472 12.2305 22.8339 12.2322 22.8221 12.2379C22.8103 12.2435 22.8005 12.2528 22.7942 12.2645C22.6192 12.583 22.4242 12.9983 22.2875 13.3261C20.7721 13.0915 19.2306 13.0915 17.7152 13.3261C17.5631 12.9629 17.3914 12.6085 17.201 12.2645C17.1945 12.2531 17.1847 12.244 17.1729 12.2384C17.1611 12.2328 17.148 12.2309 17.1352 12.2331C15.7293 12.4802 14.3609 12.9127 13.0645 13.5198C13.0535 13.5245 13.0442 13.5325 13.0378 13.5427C10.4446 17.491 9.73374 21.3417 10.0829 25.144C10.0837 25.1534 10.0865 25.1626 10.0909 25.1709C10.0954 25.1792 10.1014 25.1865 10.1087 25.1924C11.6183 26.3323 13.3071 27.2025 15.1028 27.7657C15.1154 27.7695 15.1289 27.7692 15.1414 27.765C15.1539 27.7607 15.1648 27.7527 15.1728 27.742C15.5588 27.2073 15.9005 26.6409 16.1944 26.0485C16.1985 26.0404 16.2008 26.0315 16.2013 26.0224C16.2018 26.0133 16.2004 26.0041 16.1972 25.9956C16.1939 25.9871 16.189 25.9794 16.1826 25.973C16.1762 25.9666 16.1686 25.9616 16.1602 25.9585C15.6214 25.7483 15.0998 25.495 14.6003 25.2009C14.5911 25.1955 14.5834 25.1879 14.5778 25.1787C14.5723 25.1695 14.569 25.1591 14.5683 25.1484C14.5677 25.1376 14.5696 25.1268 14.5741 25.117C14.5785 25.1072 14.5852 25.0987 14.5936 25.0922C14.6988 25.012 14.8022 24.9293 14.9036 24.8442C14.9125 24.8368 14.9232 24.8322 14.9345 24.8307C14.9458 24.8292 14.9573 24.8309 14.9678 24.8357C18.241 26.3585 21.7842 26.3585 25.0191 24.8357C25.0297 24.8307 25.0413 24.8289 25.0528 24.8304C25.0643 24.8319 25.0752 24.8367 25.0841 24.8442C25.1841 24.9274 25.2891 25.0123 25.395 25.0922C25.4033 25.0986 25.41 25.107 25.4144 25.1166C25.4188 25.1262 25.4209 25.1368 25.4204 25.1475C25.4199 25.1581 25.4169 25.1684 25.4116 25.1776C25.4063 25.1867 25.3988 25.1945 25.39 25.2C24.8916 25.4969 24.3694 25.7503 23.8292 25.9576C23.8208 25.9609 23.8131 25.9659 23.8067 25.9724C23.8004 25.9789 23.7954 25.9867 23.7922 25.9953C23.789 26.0038 23.7876 26.013 23.788 26.0222C23.7885 26.0313 23.7909 26.0403 23.795 26.0485C24.095 26.6413 24.4383 27.2052 24.8158 27.7411C24.8236 27.752 24.8345 27.7602 24.8471 27.7645C24.8596 27.7687 24.8732 27.7689 24.8858 27.7649C26.6845 27.2034 28.3759 26.3331 29.8873 25.1915C29.8947 25.1862 29.9009 25.1794 29.9055 25.1715C29.91 25.1636 29.913 25.1548 29.914 25.1457C30.3306 20.7489 29.2157 16.9297 26.9566 13.5444C26.9513 13.533 26.9421 13.5239 26.9307 13.5189V13.5198ZM16.6835 22.828C15.6977 22.828 14.8861 21.9065 14.8861 20.7735C14.8861 19.6414 15.6827 18.7191 16.6835 18.7191C17.6918 18.7191 18.4968 19.6499 18.481 20.7744C18.481 21.9065 17.6843 22.828 16.6835 22.828ZM23.3292 22.828C22.3434 22.828 21.5317 21.9065 21.5317 20.7735C21.5317 19.6414 22.3275 18.7191 23.3292 18.7191C24.3375 18.7191 25.1425 19.6499 25.1266 20.7744C25.1266 21.9065 24.3383 22.828 23.3292 22.828Z" fill="#787D82"/>
</svg>
