<svg width="40" height="40" viewBox="0 0 40 40" fill="none" xmlns="http://www.w3.org/2000/svg">
<path d="M25.625 7.625C29.3471 7.625 32.375 10.6529 32.375 14.375V25.625C32.375 29.3471 29.3471 32.375 25.625 32.375H14.375C10.6529 32.375 7.625 29.3471 7.625 25.625V14.375C7.625 10.6529 10.6529 7.625 14.375 7.625H25.625ZM25.625 5H14.375C9.21875 5 5 9.21875 5 14.375V25.625C5 30.7812 9.21875 35 14.375 35H25.625C30.7812 35 35 30.7812 35 25.625V14.375C35 9.21875 30.7812 5 25.625 5Z" fill="#787D82"/>
<path d="M20 25.8125C23.2102 25.8125 25.8125 23.2102 25.8125 20C25.8125 16.7898 23.2102 14.1875 20 14.1875C16.7898 14.1875 14.1875 16.7898 14.1875 20C14.1875 23.2102 16.7898 25.8125 20 25.8125Z" stroke="#787D82" stroke-width="3" stroke-miterlimit="10"/>
<path d="M27.875 14.2812C28.7552 14.2812 29.4688 13.5677 29.4688 12.6875C29.4688 11.8073 28.7552 11.0938 27.875 11.0938C26.9948 11.0938 26.2812 11.8073 26.2812 12.6875C26.2812 13.5677 26.9948 14.2812 27.875 14.2812Z" fill="#787D82"/>
</svg>
