<svg width="40" height="40" viewBox="0 0 40 40" fill="none" xmlns="http://www.w3.org/2000/svg">
<path d="M34.4335 6.47466C33.9218 6.0324 33.118 5.96912 32.2869 6.30916H32.2856C31.4115 6.66658 7.54421 17.1 6.5726 17.5263C6.39588 17.5889 4.85249 18.1758 5.01147 19.4831C5.15339 20.6617 6.39384 21.1499 6.54531 21.2062L12.6131 23.3236C13.0157 24.6894 14.4997 29.7281 14.8279 30.8045C15.0326 31.4756 15.3663 32.3573 15.951 32.5388C16.4641 32.7404 16.9745 32.5562 17.3047 32.2919L21.0144 28.7851L27.0031 33.545L27.1457 33.6319C27.5524 33.8155 27.942 33.9073 28.3138 33.9073C28.6011 33.9073 28.8767 33.8523 29.1401 33.7425C30.0373 33.367 30.3962 32.4957 30.4338 32.3969L34.907 8.70056C35.1799 7.43498 34.8006 6.79106 34.4335 6.47466ZM17.9645 24.1706L15.9176 29.7336L13.8706 22.7799L29.5638 10.9585L17.9645 24.1706Z" fill="#787D82"/>
</svg>
