<svg width="40" height="40" viewBox="0 0 40 40" fill="none" xmlns="http://www.w3.org/2000/svg">
<path d="M30 13.6785C29.2645 14.0119 28.4736 14.2364 27.6432 14.3371C28.4909 13.8198 29.1407 13.0005 29.4477 12.0234C28.6547 12.5026 27.777 12.8509 26.8421 13.0383C26.0935 12.2258 25.0271 11.7178 23.8471 11.7178C21.5808 11.7178 19.7441 13.5903 19.7441 15.8999C19.7441 16.2273 19.7801 16.546 19.8503 16.8526C16.4402 16.6782 13.4159 15.0133 11.3924 12.4832C11.0391 13.1008 10.8374 13.819 10.8374 14.5859C10.8374 16.0366 11.5613 17.3167 12.6624 18.0666C11.9903 18.0447 11.3573 17.8564 10.8041 17.5434C10.8033 17.5608 10.8033 17.5784 10.8033 17.5964C10.8033 19.6217 12.2179 21.3117 14.0953 21.6967C13.7506 21.7917 13.3883 21.8429 13.014 21.8429C12.7493 21.8429 12.4923 21.8171 12.2418 21.7678C12.7643 23.4289 14.2797 24.6383 16.0748 24.6717C14.6705 25.7937 12.9014 26.4622 10.9785 26.4622C10.6478 26.4622 10.3211 26.4426 10 26.4038C11.8163 27.5903 13.9727 28.2826 16.2897 28.2826C23.8377 28.2826 27.9645 21.9103 27.9645 16.3842C27.9645 16.2031 27.961 16.0222 27.953 15.8428C28.7546 15.2542 29.4501 14.5173 30 13.6785Z" fill="#787D82"/>
</svg>
