<svg width="40" height="40" viewBox="0 0 40 40" fill="none" xmlns="http://www.w3.org/2000/svg">
<path d="M35 10.5173C33.8967 11.0173 32.7104 11.354 31.4649 11.5052C32.7363 10.7292 33.7111 9.50027 34.1716 8.0346C32.9821 8.75348 31.6655 9.27593 30.2632 9.55702C29.1402 8.33824 27.5406 7.57617 25.7706 7.57617C22.3712 7.57617 19.6161 10.385 19.6161 13.8493C19.6161 14.3404 19.6701 14.8185 19.7755 15.2785C14.6602 15.0169 10.1238 12.5195 7.08858 8.72425C6.5587 9.65066 6.25607 10.728 6.25607 11.8784C6.25607 14.0544 7.34189 15.9746 8.99359 17.0994C7.98539 17.0665 7.03589 16.7841 6.2062 16.3146C6.20488 16.3408 6.20488 16.3671 6.20488 16.3941C6.20488 19.432 8.32683 21.9671 11.1429 22.5445C10.626 22.6871 10.0824 22.7639 9.52103 22.7639C9.1239 22.7639 8.7384 22.7251 8.36265 22.6512C9.1464 25.1428 11.4195 26.957 14.1122 27.0071C12.0058 28.69 9.35209 29.6929 6.46776 29.6929C5.97163 29.6929 5.48169 29.6635 5 29.6052C7.72439 31.385 10.959 32.4234 14.4345 32.4234C25.7566 32.4234 31.9467 22.865 31.9467 14.5758C31.9467 14.3041 31.9415 14.0328 31.9295 13.7637C33.1319 12.8809 34.1752 11.7754 35 10.5173Z" fill="#787D82"/>
</svg>
